# xmcd CD database file
#
# Track frame offsets:
#	150
#	22647
#	40517
#	53580
#	79022
#	92167
#	105895
#	119277
#	135682
#	149442
#	162467
#	186915
#	204860
#
# Disc length: 2977 seconds
#
# Revision: 2
# Processed by: cddbd v1.5.1PL0 Copyright (c) Steve Scherf et al.
# Submitted via: CDex 1.50Beta7
#
DISCID=9b0b9f0d
DTITLE=D Hamrs and Gojc - Domovina, ljubezen moja
DYEAR=1995
DGENRE=Folk
TTITLE0=Caka te zacetek
TTITLE1=Ko sosedu koza crkne, Slovenc ma zur
TTITLE2=B&W
TTITLE3=Imam se pod kontrolo
TTITLE4=Domovina, ljubezen moja
TTITLE5=Balkan
TTITLE6=Vetrovi pojejo
TTITLE7=Splunt, splaknit
TTITLE8=Jezni mladenic
TTITLE9=Sori Rasta
TTITLE10=Spel Fernandl
TTITLE11=Ta zaljubljena
TTITLE12=Ta trinajsta
EXTD=YEAR: 1995
EXTT0=
EXTT1=
EXTT2=
EXTT3=
EXTT4=
EXTT5=
EXTT6=
EXTT7=
EXTT8=
EXTT9=
EXTT10=
EXTT11=
EXTT12=
PLAYORDER=
